<?xml version="1.0" encoding="UTF-8" standalone="no"?>
<!-- Created with Inkscape (http://www.inkscape.org/) -->

<svg
   width="65.657906mm"
   height="60.27029mm"
   viewBox="0 0 65.657906 60.27029"
   version="1.1"
   id="svg4299"
   inkscape:version="1.2.2 (b0a8486541, 2022-12-01)"
   sodipodi:docname="01b_task.svg"
   xmlns:inkscape="http://www.inkscape.org/namespaces/inkscape"
   xmlns:sodipodi="http://sodipodi.sourceforge.net/DTD/sodipodi-0.dtd"
   xmlns="http://www.w3.org/2000/svg"
   xmlns:svg="http://www.w3.org/2000/svg">
  <sodipodi:namedview
     id="namedview4301"
     pagecolor="#ffffff"
     bordercolor="#000000"
     borderopacity="0.25"
     inkscape:showpageshadow="2"
     inkscape:pageopacity="0.0"
     inkscape:pagecheckerboard="0"
     inkscape:deskcolor="#d1d1d1"
     inkscape:document-units="mm"
     showgrid="false"
     inkscape:zoom="0.89263468"
     inkscape:cx="35.288792"
     inkscape:cy="315.91871"
     inkscape:window-width="1485"
     inkscape:window-height="1205"
     inkscape:window-x="1950"
     inkscape:window-y="30"
     inkscape:window-maximized="0"
     inkscape:current-layer="layer1" />
  <defs
     id="defs4296" />
  <g
     inkscape:label="Layer 1"
     inkscape:groupmode="layer"
     id="layer1"
     transform="translate(-58.46446,-65.011556)">
    <path
       fill-rule="nonzero"
       fill="#e6e6e6"
       fill-opacity="1"
       stroke-width="0.140582"
       stroke-linecap="butt"
       stroke-linejoin="miter"
       stroke="#000000"
       stroke-opacity="1"
       stroke-miterlimit="10"
       d="m 103.55887,105.11712 h 10.00042 V 85.116279 Z m 0,0"
       id="path3145" />
    <g
       fill="#000000"
       fill-opacity="1"
       id="g3149"
       transform="matrix(0.35277777,0,0,0.35277777,-18.05438,-132.00741)">
      <g
         id="use3147"
         transform="translate(357.82001,661.39398)">
        <path
           d="M 6.453125,-2.390625 C 6.453125,-2.5 6.328125,-2.5 6.328125,-2.5 c -0.0625,0 -0.109375,0.03125 -0.125,0.109375 -0.09375,0.28125 -0.328125,1 -1.015625,1.578125 -0.6875,0.546875 -1.3125,0.71875 -1.828125,0.71875 -0.890625,0 -1.953125,-0.515625 -1.953125,-2.0625 0,-0.578125 0.203125,-2.1875 1.203125,-3.359375 0.609375,-0.703125 1.546875,-1.203125 2.4375,-1.203125 1.015625,0 1.609375,0.765625 1.609375,1.921875 0,0.40625 -0.03125,0.40625 -0.03125,0.515625 0,0.09375 0.109375,0.09375 0.140625,0.09375 0.125,0 0.125,-0.015625 0.1875,-0.203125 l 0.625,-2.53125 c 0,-0.03125 -0.015625,-0.109375 -0.109375,-0.109375 -0.03125,0 -0.046875,0.015625 -0.15625,0.125 L 6.625,-6.140625 C 6.53125,-6.28125 6.078125,-7.03125 4.96875,-7.03125 2.734375,-7.03125 0.5,-4.828125 0.5,-2.515625 0.5,-0.875 1.671875,0.21875 3.203125,0.21875 c 0.859375,0 1.625,-0.390625 2.15625,-0.859375 0.921875,-0.8125 1.09375,-1.71875 1.09375,-1.75 z m 0,0"
           id="path4378" />
      </g>
    </g>
    <path
       fill-rule="nonzero"
       fill="#e6e6e6"
       fill-opacity="1"
       stroke-width="0.140582"
       stroke-linecap="butt"
       stroke-linejoin="miter"
       stroke="#000000"
       stroke-opacity="1"
       stroke-miterlimit="10"
       d="M 93.558443,85.116279 103.55887,65.11681 83.55802,70.116334 Z m 0,0"
       id="path3151" />
    <g
       fill="#000000"
       fill-opacity="1"
       id="g3155"
       transform="matrix(0.35277777,0,0,0.35277777,-18.05438,-132.00741)">
      <g
         id="use3153"
         transform="translate(309.285,587.69299)">
        <path
           d="m 8.015625,-4.28125 c 0,-1.40625 -0.84375,-2.53125 -2.34375,-2.53125 h -3.34375 c -0.1875,0 -0.296875,0 -0.296875,0.1875 0,0.125 0.078125,0.125 0.28125,0.125 0.125,0 0.3125,0.015625 0.421875,0.015625 0.171875,0.03125 0.21875,0.046875 0.21875,0.171875 0,0.03125 0,0.0625 -0.03125,0.1875 l -1.34375,5.34375 c -0.09375,0.390625 -0.109375,0.46875 -0.90625,0.46875 -0.15625,0 -0.265625,0 -0.265625,0.1875 C 0.40625,0 0.484375,0 0.671875,0 h 3.3125 c 2.0625,0 4.03125,-2.109375 4.03125,-4.28125 z m -0.875,-0.375 c 0,0.484375 -0.1875,2.125 -1.046875,3.21875 -0.28125,0.375 -1.0625,1.125 -2.296875,1.125 h -1.125 c -0.140625,0 -0.15625,0 -0.21875,0 -0.09375,-0.015625 -0.125,-0.03125 -0.125,-0.109375 0,-0.03125 0,-0.046875 0.046875,-0.21875 L 3.734375,-6.125 C 3.828125,-6.46875 3.84375,-6.5 4.28125,-6.5 h 1.0625 c 0.96875,0 1.796875,0.53125 1.796875,1.84375 z m 0,0"
           id="path4374" />
      </g>
    </g>
    <path
       fill-rule="nonzero"
       fill="#e6e6e6"
       fill-opacity="1"
       stroke-width="0.140582"
       stroke-linecap="butt"
       stroke-linejoin="miter"
       stroke="#000000"
       stroke-opacity="1"
       stroke-miterlimit="10"
       d="M 73.557597,95.116702 V 80.116756 l -9.999045,4.999523 z m 0,0"
       id="path3157" />
    <g
       fill="#000000"
       fill-opacity="1"
       id="g3161"
       transform="matrix(0.35277777,0,0,0.35277777,-18.05438,-132.00741)">
      <g
         id="use3159"
         transform="translate(244.386,621.70898)">
        <path
           d="m 7.109375,-2.46875 c 0,0 0,-0.109375 -0.125,-0.109375 -0.09375,0 -0.109375,0.0625 -0.125,0.125 C 6.203125,-0.984375 5.84375,-0.3125 4.140625,-0.3125 H 2.6875 c -0.140625,0 -0.171875,0 -0.21875,0 -0.109375,-0.015625 -0.140625,-0.03125 -0.140625,-0.109375 0,-0.03125 0,-0.046875 0.046875,-0.21875 L 3.0625,-3.375 h 0.984375 c 0.84375,0 0.84375,0.21875 0.84375,0.46875 0,0.0625 0,0.1875 -0.0625,0.484375 C 4.8125,-2.375 4.796875,-2.34375 4.796875,-2.3125 c 0,0.046875 0.03125,0.109375 0.125,0.109375 C 5,-2.203125 5.03125,-2.25 5.078125,-2.40625 l 0.5625,-2.328125 c 0,-0.0625 -0.046875,-0.109375 -0.125,-0.109375 -0.078125,0 -0.109375,0.0625 -0.125,0.171875 -0.21875,0.765625 -0.390625,1 -1.3125,1 h -0.9375 l 0.59375,-2.40625 C 3.828125,-6.4375 3.84375,-6.46875 4.28125,-6.46875 H 5.6875 c 1.203125,0 1.515625,0.28125 1.515625,1.109375 0,0.234375 0,0.25 -0.046875,0.53125 0,0.046875 -0.015625,0.125 -0.015625,0.171875 0,0.046875 0.03125,0.125 0.125,0.125 0.109375,0 0.125,-0.0625 0.140625,-0.25 L 7.609375,-6.515625 C 7.640625,-6.78125 7.59375,-6.78125 7.34375,-6.78125 H 2.296875 c -0.1875,0 -0.296875,0 -0.296875,0.203125 0,0.109375 0.09375,0.109375 0.28125,0.109375 0.375,0 0.65625,0 0.65625,0.171875 0,0.046875 0,0.0625 -0.0625,0.25 L 1.5625,-0.78125 c -0.09375,0.390625 -0.109375,0.46875 -0.90625,0.46875 -0.171875,0 -0.28125,0 -0.28125,0.1875 C 0.375,0 0.46875,0 0.65625,0 h 5.171875 c 0.234375,0 0.25,-0.015625 0.3125,-0.171875 L 7.0625,-2.328125 C 7.078125,-2.375 7.109375,-2.46875 7.109375,-2.46875 Z m 0,0"
           id="path4370" />
      </g>
    </g>
    <path
       fill-rule="nonzero"
       fill="#e6e6e6"
       fill-opacity="1"
       stroke-width="0.140582"
       stroke-linecap="butt"
       stroke-linejoin="miter"
       stroke="#000000"
       stroke-opacity="1"
       stroke-miterlimit="10"
       d="M 73.557597,105.11712 H 58.557652 l 5.0009,17.49971 z m 0,0"
       id="path3163" />
    <g
       fill="#000000"
       fill-opacity="1"
       id="g3167"
       transform="matrix(0.35277777,0,0,0.35277777,-18.05438,-132.00741)">
      <g
         id="use3165"
         transform="translate(233.276,689.73999)">
        <path
           d="M 7.1875,-0.203125 C 7.1875,-0.3125 7.09375,-0.3125 6.953125,-0.3125 6.34375,-0.3125 6.34375,-0.375 6.3125,-0.671875 l -0.609375,-6.21875 c -0.015625,-0.203125 -0.015625,-0.25 -0.1875,-0.25 -0.15625,0 -0.203125,0.078125 -0.265625,0.171875 L 1.78125,-1.140625 C 1.390625,-0.484375 1,-0.34375 0.5625,-0.3125 0.4375,-0.296875 0.34375,-0.296875 0.34375,-0.109375 0.34375,-0.046875 0.40625,0 0.484375,0 0.75,0 1.0625,-0.03125 1.328125,-0.03125 c 0.34375,0 0.6875,0.03125 1,0.03125 0.0625,0 0.1875,0 0.1875,-0.1875 0,-0.109375 -0.078125,-0.125 -0.15625,-0.125 -0.21875,-0.015625 -0.46875,-0.09375 -0.46875,-0.34375 0,-0.125 0.0625,-0.234375 0.140625,-0.375 0.078125,-0.109375 0.078125,-0.109375 0.765625,-1.265625 h 2.5 c 0.015625,0.203125 0.15625,1.5625 0.15625,1.65625 0,0.296875 -0.515625,0.328125 -0.71875,0.328125 C 4.59375,-0.3125 4.5,-0.3125 4.5,-0.109375 4.5,0 4.640625,0 4.640625,0 5.046875,0 5.46875,-0.03125 5.875,-0.03125 6.125,-0.03125 6.765625,0 7.015625,0 7.0625,0 7.1875,0 7.1875,-0.203125 Z M 5.265625,-2.609375 H 2.984375 L 4.9375,-5.90625 Z m 0,0"
           id="path4382" />
      </g>
    </g>
    <path
       fill-rule="nonzero"
       fill="#e6e6e6"
       fill-opacity="1"
       stroke-width="0.140582"
       stroke-linecap="butt"
       stroke-linejoin="miter"
       stroke="#000000"
       stroke-opacity="1"
       stroke-miterlimit="10"
       d="m 88.55892,110.11665 4.999523,10.00042 29.999887,4.99952 z m 0,0"
       id="path3169" />
    <g
       fill="#000000"
       fill-opacity="1"
       id="g3173"
       transform="matrix(0.35277777,0,0,0.35277777,-18.05438,-132.00741)">
      <g
         id="use3171"
         transform="translate(320.858,709.58197)">
        <path
           d="M 7,-2.15625 C 7,-2.875 6.421875,-3.453125 5.453125,-3.5625 6.484375,-3.75 7.53125,-4.484375 7.53125,-5.4375 c 0,-0.734375 -0.65625,-1.375 -1.84375,-1.375 H 2.328125 c -0.1875,0 -0.28125,0 -0.28125,0.203125 0,0.109375 0.09375,0.109375 0.28125,0.109375 0,0 0.203125,0 0.375,0.015625 0.171875,0.03125 0.265625,0.03125 0.265625,0.171875 0,0.03125 -0.015625,0.0625 -0.03125,0.1875 L 1.59375,-0.78125 C 1.5,-0.390625 1.46875,-0.3125 0.6875,-0.3125 c -0.171875,0 -0.265625,0 -0.265625,0.203125 C 0.421875,0 0.515625,0 0.6875,0 H 4.25 C 5.828125,0 7,-1.171875 7,-2.15625 Z m -0.375,-3.3125 c 0,0.875 -0.859375,1.8125 -2.0625,1.8125 H 3.09375 L 3.71875,-6.125 C 3.8125,-6.46875 3.828125,-6.5 4.25,-6.5 h 1.296875 c 0.875,0 1.078125,0.59375 1.078125,1.03125 z M 6.078125,-2.265625 C 6.078125,-1.28125 5.1875,-0.3125 4,-0.3125 H 2.65625 c -0.140625,0 -0.15625,0 -0.21875,0 -0.109375,-0.015625 -0.140625,-0.03125 -0.140625,-0.109375 0,-0.03125 0,-0.046875 0.0625,-0.21875 l 0.6875,-2.78125 h 1.875 c 0.953125,0 1.15625,0.734375 1.15625,1.15625 z m 0,0"
           id="path4386" />
      </g>
    </g>
  </g>
</svg>
