<?xml version="1.0" encoding="UTF-8" standalone="no"?>
<!-- Created with Inkscape (http://www.inkscape.org/) -->

<svg
   width="12.976544mm"
   height="87.533073mm"
   viewBox="0 0 12.976544 87.533073"
   version="1.1"
   id="svg6235"
   xmlns="http://www.w3.org/2000/svg"
   xmlns:svg="http://www.w3.org/2000/svg">
  <defs
     id="defs6232" />
  <g
     id="layer1"
     transform="translate(-184.10155,-87.541847)">
    <path
       fill-rule="nonzero"
       fill="#000000"
       fill-opacity="1"
       d="m 186.42562,90.864365 c 0,-0.414793 -0.33624,-0.749653 -0.75103,-0.749653 -0.41342,0 -0.74966,0.33486 -0.74966,0.749653 0,0.41341 0.33624,0.749653 0.74966,0.749653 0.41479,0 0.75103,-0.336243 0.75103,-0.749653 z m 0,0"
       id="path1962"
       style="stroke-width:0.352778" />
    <g
       fill="#000000"
       fill-opacity="1"
       id="g1966"
       transform="matrix(0.35277777,0,0,0.35277777,85.562871,-30.624859)">
      <g
         id="use1964"
         transform="translate(278.91599,339.367)">
        <path
           d="m 4.96875,-1.421875 c 0,-0.109375 -0.09375,-0.109375 -0.125,-0.109375 -0.09375,0 -0.109375,0.046875 -0.140625,0.1875 -0.171875,0.640625 -0.34375,1.234375 -0.75,1.234375 -0.28125,0 -0.296875,-0.265625 -0.296875,-0.453125 0,-0.21875 0.015625,-0.3125 0.125,-0.75 L 4,-2.203125 4.359375,-3.59375 c 0.0625,-0.28125 0.0625,-0.296875 0.0625,-0.34375 0,-0.171875 -0.109375,-0.265625 -0.28125,-0.265625 -0.25,0 -0.390625,0.21875 -0.421875,0.4375 -0.1875,-0.375 -0.46875,-0.640625 -0.921875,-0.640625 -1.15625,0 -2.390625,1.46875 -2.390625,2.921875 0,0.9375 0.546875,1.59375 1.3125,1.59375 0.203125,0 0.703125,-0.046875 1.296875,-0.75 0.078125,0.421875 0.4375,0.75 0.90625,0.75 0.359375,0 0.578125,-0.234375 0.75,-0.546875 0.15625,-0.359375 0.296875,-0.984375 0.296875,-0.984375 z M 3.5625,-3.140625 3.078125,-1.1875 C 3.015625,-1 3.015625,-0.984375 2.875,-0.8125 2.4375,-0.265625 2.03125,-0.109375 1.75,-0.109375 c -0.5,0 -0.640625,-0.546875 -0.640625,-0.9375 0,-0.5 0.3125,-1.71875 0.546875,-2.1875 0.3125,-0.578125 0.75,-0.953125 1.15625,-0.953125 0.640625,0 0.78125,0.8125 0.78125,0.875 0,0.0625 -0.015625,0.125 -0.03125,0.171875 z m 0,0"
           id="path6387" />
      </g>
    </g>
    <g
       fill="#000000"
       fill-opacity="1"
       id="g1970"
       transform="matrix(0.35277777,0,0,0.35277777,85.562871,-30.624859)">
      <g
         id="use1968"
         transform="translate(284.18201,340.86099)">
        <path
           d="M 3.59375,-2.21875 C 3.59375,-2.984375 3.5,-3.546875 3.1875,-4.03125 2.96875,-4.34375 2.53125,-4.625 1.984375,-4.625 c -1.625,0 -1.625,1.90625 -1.625,2.40625 0,0.5 0,2.359375 1.625,2.359375 1.609375,0 1.609375,-1.859375 1.609375,-2.359375 z m -0.625,-0.09375 c 0,0.515625 0,1.03125 -0.09375,1.46875 -0.140625,0.640625 -0.609375,0.78125 -0.890625,0.78125 -0.328125,0 -0.75,-0.1875 -0.890625,-0.75 C 1,-1.21875 1,-1.796875 1,-2.3125 1,-2.828125 1,-3.359375 1.09375,-3.734375 1.25,-4.28125 1.6875,-4.4375 1.984375,-4.4375 c 0.375,0 0.734375,0.234375 0.859375,0.640625 0.109375,0.375 0.125,0.875 0.125,1.484375 z m 0,0"
           id="path6375" />
      </g>
    </g>
    <path
       fill-rule="nonzero"
       fill="#000000"
       fill-opacity="1"
       d="m 196.42466,100.86479 c 0,-0.41479 -0.33486,-0.75103 -0.74965,-0.75103 -0.41341,0 -0.74965,0.33624 -0.74965,0.75103 0,0.41341 0.33624,0.74965 0.74965,0.74965 0.41479,0 0.74965,-0.33624 0.74965,-0.74965 z m 0,0"
       id="path1972"
       style="stroke-width:0.352778" />
    <g
       fill="#000000"
       fill-opacity="1"
       id="g1976"
       transform="matrix(0.35277777,0,0,0.35277777,85.562871,-30.624859)">
      <g
         id="use1974"
         transform="translate(307.26199,367.71301)">
        <path
           d="m 4.96875,-1.421875 c 0,-0.109375 -0.09375,-0.109375 -0.125,-0.109375 -0.09375,0 -0.109375,0.046875 -0.140625,0.1875 -0.171875,0.640625 -0.34375,1.234375 -0.75,1.234375 -0.28125,0 -0.296875,-0.265625 -0.296875,-0.453125 0,-0.21875 0.015625,-0.3125 0.125,-0.75 L 4,-2.203125 4.359375,-3.59375 c 0.0625,-0.28125 0.0625,-0.296875 0.0625,-0.34375 0,-0.171875 -0.109375,-0.265625 -0.28125,-0.265625 -0.25,0 -0.390625,0.21875 -0.421875,0.4375 -0.1875,-0.375 -0.46875,-0.640625 -0.921875,-0.640625 -1.15625,0 -2.390625,1.46875 -2.390625,2.921875 0,0.9375 0.546875,1.59375 1.3125,1.59375 0.203125,0 0.703125,-0.046875 1.296875,-0.75 0.078125,0.421875 0.4375,0.75 0.90625,0.75 0.359375,0 0.578125,-0.234375 0.75,-0.546875 0.15625,-0.359375 0.296875,-0.984375 0.296875,-0.984375 z M 3.5625,-3.140625 3.078125,-1.1875 C 3.015625,-1 3.015625,-0.984375 2.875,-0.8125 2.4375,-0.265625 2.03125,-0.109375 1.75,-0.109375 c -0.5,0 -0.640625,-0.546875 -0.640625,-0.9375 0,-0.5 0.3125,-1.71875 0.546875,-2.1875 0.3125,-0.578125 0.75,-0.953125 1.15625,-0.953125 0.640625,0 0.78125,0.8125 0.78125,0.875 0,0.0625 -0.015625,0.125 -0.03125,0.171875 z m 0,0"
           id="path6391" />
      </g>
    </g>
    <g
       fill="#000000"
       fill-opacity="1"
       id="g1980"
       transform="matrix(0.35277777,0,0,0.35277777,85.562871,-30.624859)">
      <g
         id="use1978"
         transform="translate(312.52802,369.20801)">
        <path
           d="M 3.296875,0 V -0.25 H 3.03125 c -0.703125,0 -0.703125,-0.09375 -0.703125,-0.328125 V -4.4375 c 0,-0.1875 0,-0.1875 -0.203125,-0.1875 -0.453125,0.4375 -1.078125,0.4375 -1.359375,0.4375 v 0.25 c 0.15625,0 0.625,0 1,-0.1875 v 3.546875 c 0,0.234375 0,0.328125 -0.6875,0.328125 H 0.8125 V 0 l 1.234375,-0.03125 z m 0,0"
           id="path6371" />
      </g>
    </g>
    <path
       fill-rule="nonzero"
       fill="#000000"
       fill-opacity="1"
       d="m 186.42562,110.86383 c 0,-0.41341 -0.33624,-0.74965 -0.75103,-0.74965 -0.41342,0 -0.74966,0.33624 -0.74966,0.74965 0,0.41479 0.33624,0.75103 0.74966,0.75103 0.41479,0 0.75103,-0.33624 0.75103,-0.75103 z m 0,0"
       id="path1982"
       style="stroke-width:0.352778" />
    <g
       fill="#000000"
       fill-opacity="1"
       id="g1986"
       transform="matrix(0.35277777,0,0,0.35277777,85.562871,-30.624859)">
      <g
         id="use1984"
         transform="translate(278.91599,396.06)">
        <path
           d="m 4.96875,-1.421875 c 0,-0.109375 -0.09375,-0.109375 -0.125,-0.109375 -0.09375,0 -0.109375,0.046875 -0.140625,0.1875 -0.171875,0.640625 -0.34375,1.234375 -0.75,1.234375 -0.28125,0 -0.296875,-0.265625 -0.296875,-0.453125 0,-0.21875 0.015625,-0.3125 0.125,-0.75 L 4,-2.203125 4.359375,-3.59375 c 0.0625,-0.28125 0.0625,-0.296875 0.0625,-0.34375 0,-0.171875 -0.109375,-0.265625 -0.28125,-0.265625 -0.25,0 -0.390625,0.21875 -0.421875,0.4375 -0.1875,-0.375 -0.46875,-0.640625 -0.921875,-0.640625 -1.15625,0 -2.390625,1.46875 -2.390625,2.921875 0,0.9375 0.546875,1.59375 1.3125,1.59375 0.203125,0 0.703125,-0.046875 1.296875,-0.75 0.078125,0.421875 0.4375,0.75 0.90625,0.75 0.359375,0 0.578125,-0.234375 0.75,-0.546875 0.15625,-0.359375 0.296875,-0.984375 0.296875,-0.984375 z M 3.5625,-3.140625 3.078125,-1.1875 C 3.015625,-1 3.015625,-0.984375 2.875,-0.8125 2.4375,-0.265625 2.03125,-0.109375 1.75,-0.109375 c -0.5,0 -0.640625,-0.546875 -0.640625,-0.9375 0,-0.5 0.3125,-1.71875 0.546875,-2.1875 0.3125,-0.578125 0.75,-0.953125 1.15625,-0.953125 0.640625,0 0.78125,0.8125 0.78125,0.875 0,0.0625 -0.015625,0.125 -0.03125,0.171875 z m 0,0"
           id="path6395" />
      </g>
    </g>
    <g
       fill="#000000"
       fill-opacity="1"
       id="g1990"
       transform="matrix(0.35277777,0,0,0.35277777,85.562871,-30.624859)">
      <g
         id="use1988"
         transform="translate(284.18201,397.55399)">
        <path
           d="M 3.515625,-1.265625 H 3.28125 c -0.015625,0.15625 -0.09375,0.5625 -0.1875,0.625 C 3.046875,-0.59375 2.515625,-0.59375 2.40625,-0.59375 H 1.125 c 0.734375,-0.640625 0.984375,-0.84375 1.390625,-1.171875 0.515625,-0.40625 1,-0.84375 1,-1.5 0,-0.84375 -0.734375,-1.359375 -1.625,-1.359375 -0.859375,0 -1.453125,0.609375 -1.453125,1.25 0,0.34375 0.296875,0.390625 0.375,0.390625 0.15625,0 0.359375,-0.125 0.359375,-0.375 0,-0.125 -0.046875,-0.375 -0.40625,-0.375 C 0.984375,-4.21875 1.453125,-4.375 1.78125,-4.375 c 0.703125,0 1.0625,0.546875 1.0625,1.109375 0,0.609375 -0.4375,1.078125 -0.65625,1.328125 L 0.515625,-0.265625 C 0.4375,-0.203125 0.4375,-0.1875 0.4375,0 h 2.875 z m 0,0"
           id="path6367" />
      </g>
    </g>
    <path
       fill-rule="nonzero"
       fill="#000000"
       fill-opacity="1"
       d="m 196.42466,120.86425 c 0,-0.41341 -0.33486,-0.74965 -0.74965,-0.74965 -0.41341,0 -0.74965,0.33624 -0.74965,0.74965 0,0.41479 0.33624,0.74966 0.74965,0.74966 0.41479,0 0.74965,-0.33487 0.74965,-0.74966 z m 0,0"
       id="path1992"
       style="stroke-width:0.352778" />
    <g
       fill="#000000"
       fill-opacity="1"
       id="g1996"
       transform="matrix(0.35277777,0,0,0.35277777,85.562871,-30.624859)">
      <g
         id="use1994"
         transform="translate(307.26199,424.40601)">
        <path
           d="m 4.96875,-1.421875 c 0,-0.109375 -0.09375,-0.109375 -0.125,-0.109375 -0.09375,0 -0.109375,0.046875 -0.140625,0.1875 -0.171875,0.640625 -0.34375,1.234375 -0.75,1.234375 -0.28125,0 -0.296875,-0.265625 -0.296875,-0.453125 0,-0.21875 0.015625,-0.3125 0.125,-0.75 L 4,-2.203125 4.359375,-3.59375 c 0.0625,-0.28125 0.0625,-0.296875 0.0625,-0.34375 0,-0.171875 -0.109375,-0.265625 -0.28125,-0.265625 -0.25,0 -0.390625,0.21875 -0.421875,0.4375 -0.1875,-0.375 -0.46875,-0.640625 -0.921875,-0.640625 -1.15625,0 -2.390625,1.46875 -2.390625,2.921875 0,0.9375 0.546875,1.59375 1.3125,1.59375 0.203125,0 0.703125,-0.046875 1.296875,-0.75 0.078125,0.421875 0.4375,0.75 0.90625,0.75 0.359375,0 0.578125,-0.234375 0.75,-0.546875 0.15625,-0.359375 0.296875,-0.984375 0.296875,-0.984375 z M 3.5625,-3.140625 3.078125,-1.1875 C 3.015625,-1 3.015625,-0.984375 2.875,-0.8125 2.4375,-0.265625 2.03125,-0.109375 1.75,-0.109375 c -0.5,0 -0.640625,-0.546875 -0.640625,-0.9375 0,-0.5 0.3125,-1.71875 0.546875,-2.1875 0.3125,-0.578125 0.75,-0.953125 1.15625,-0.953125 0.640625,0 0.78125,0.8125 0.78125,0.875 0,0.0625 -0.015625,0.125 -0.03125,0.171875 z m 0,0"
           id="path6399" />
      </g>
    </g>
    <g
       fill="#000000"
       fill-opacity="1"
       id="g2000"
       transform="matrix(0.35277777,0,0,0.35277777,85.562871,-30.624859)">
      <g
         id="use1998"
         transform="translate(312.52802,425.901)">
        <path
           d="m 3.578125,-1.203125 c 0,-0.546875 -0.4375,-1.09375 -1.203125,-1.25 0.71875,-0.265625 0.984375,-0.78125 0.984375,-1.21875 0,-0.546875 -0.625,-0.953125 -1.40625,-0.953125 -0.765625,0 -1.359375,0.375 -1.359375,0.9375 0,0.234375 0.15625,0.359375 0.359375,0.359375 0.21875,0 0.359375,-0.15625 0.359375,-0.34375 0,-0.203125 -0.140625,-0.359375 -0.359375,-0.375 0.25,-0.296875 0.71875,-0.375 0.984375,-0.375 0.3125,0 0.75,0.15625 0.75,0.75 0,0.296875 -0.09375,0.625 -0.28125,0.828125 -0.21875,0.265625 -0.421875,0.28125 -0.765625,0.3125 -0.171875,0.015625 -0.1875,0.015625 -0.21875,0.015625 0,0 -0.078125,0.015625 -0.078125,0.09375 0,0.09375 0.0625,0.09375 0.1875,0.09375 h 0.375 c 0.546875,0 0.9375,0.375 0.9375,1.125 0,0.859375 -0.515625,1.125 -0.90625,1.125 -0.28125,0 -0.90625,-0.078125 -1.1875,-0.5 0.328125,0 0.40625,-0.234375 0.40625,-0.390625 0,-0.21875 -0.171875,-0.375 -0.390625,-0.375 -0.1875,0 -0.390625,0.125 -0.390625,0.40625 0,0.65625 0.71875,1.078125 1.5625,1.078125 0.96875,0 1.640625,-0.65625 1.640625,-1.34375 z m 0,0"
           id="path6359" />
      </g>
    </g>
    <path
       fill-rule="nonzero"
       fill="#000000"
       fill-opacity="1"
       d="m 196.42466,160.86457 c 0,-0.41341 -0.33486,-0.74965 -0.74965,-0.74965 -0.41341,0 -0.74965,0.33624 -0.74965,0.74965 0,0.41479 0.33624,0.75103 0.74965,0.75103 0.41479,0 0.74965,-0.33624 0.74965,-0.75103 z m 0,0"
       id="path2002"
       style="stroke-width:0.352778" />
    <g
       fill="#000000"
       fill-opacity="1"
       id="g2006"
       transform="matrix(0.35277777,0,0,0.35277777,85.562871,-30.624859)">
      <g
         id="use2004"
         transform="translate(307.75699,553.245)">
        <path
           d="m 4.140625,-2.8125 c 0,-0.90625 -0.53125,-1.59375 -1.328125,-1.59375 -0.453125,0 -0.875,0.296875 -1.171875,0.59375 l 0.734375,-3 c 0,0 0,-0.109375 -0.125,-0.109375 -0.21875,0 -0.953125,0.078125 -1.21875,0.109375 -0.078125,0 -0.1875,0.015625 -0.1875,0.1875 0,0.125 0.09375,0.125 0.25,0.125 0.46875,0 0.484375,0.0625 0.484375,0.171875 0,0.0625 -0.078125,0.40625 -0.125,0.609375 l -0.828125,3.25 c -0.109375,0.5 -0.15625,0.671875 -0.15625,1.015625 0,0.9375 0.53125,1.5625 1.265625,1.5625 1.171875,0 2.40625,-1.484375 2.40625,-2.921875 z M 2.90625,-1.140625 c -0.328125,0.671875 -0.78125,1.03125 -1.171875,1.03125 -0.34375,0 -0.671875,-0.265625 -0.671875,-1 0,-0.203125 0,-0.390625 0.15625,-1.015625 L 1.453125,-3.046875 C 1.5,-3.265625 1.5,-3.28125 1.59375,-3.390625 2.078125,-4.03125 2.53125,-4.1875 2.796875,-4.1875 c 0.359375,0 0.625,0.296875 0.625,0.9375 0,0.59375 -0.328125,1.734375 -0.515625,2.109375 z m 0,0"
           id="path6379" />
      </g>
    </g>
    <g
       fill="#000000"
       fill-opacity="1"
       id="g2010"
       transform="matrix(0.35277777,0,0,0.35277777,85.562871,-30.624859)">
      <g
         id="use2008"
         transform="translate(312.03299,554.73999)">
        <path
           d="m 3.578125,-1.203125 c 0,-0.546875 -0.4375,-1.09375 -1.203125,-1.25 0.71875,-0.265625 0.984375,-0.78125 0.984375,-1.21875 0,-0.546875 -0.625,-0.953125 -1.40625,-0.953125 -0.765625,0 -1.359375,0.375 -1.359375,0.9375 0,0.234375 0.15625,0.359375 0.359375,0.359375 0.21875,0 0.359375,-0.15625 0.359375,-0.34375 0,-0.203125 -0.140625,-0.359375 -0.359375,-0.375 0.25,-0.296875 0.71875,-0.375 0.984375,-0.375 0.3125,0 0.75,0.15625 0.75,0.75 0,0.296875 -0.09375,0.625 -0.28125,0.828125 -0.21875,0.265625 -0.421875,0.28125 -0.765625,0.3125 -0.171875,0.015625 -0.1875,0.015625 -0.21875,0.015625 0,0 -0.078125,0.015625 -0.078125,0.09375 0,0.09375 0.0625,0.09375 0.1875,0.09375 h 0.375 c 0.546875,0 0.9375,0.375 0.9375,1.125 0,0.859375 -0.515625,1.125 -0.90625,1.125 -0.28125,0 -0.90625,-0.078125 -1.1875,-0.5 0.328125,0 0.40625,-0.234375 0.40625,-0.390625 0,-0.21875 -0.171875,-0.375 -0.390625,-0.375 -0.1875,0 -0.390625,0.125 -0.390625,0.40625 0,0.65625 0.71875,1.078125 1.5625,1.078125 0.96875,0 1.640625,-0.65625 1.640625,-1.34375 z m 0,0"
           id="path6363" />
      </g>
    </g>
    <path
       fill-rule="nonzero"
       fill="#000000"
       fill-opacity="1"
       d="m 186.42562,170.86499 c 0,-0.41341 -0.33624,-0.74965 -0.75103,-0.74965 -0.41342,0 -0.74966,0.33624 -0.74966,0.74965 0,0.41479 0.33624,0.74965 0.74966,0.74965 0.41479,0 0.75103,-0.33486 0.75103,-0.74965 z m 0,0"
       id="path2012"
       style="stroke-width:0.352778" />
    <g
       fill="#000000"
       fill-opacity="1"
       id="g2016"
       transform="matrix(0.35277777,0,0,0.35277777,85.562871,-30.624859)">
      <g
         id="use2014"
         transform="translate(279.41101,581.59198)">
        <path
           d="m 4.140625,-2.8125 c 0,-0.90625 -0.53125,-1.59375 -1.328125,-1.59375 -0.453125,0 -0.875,0.296875 -1.171875,0.59375 l 0.734375,-3 c 0,0 0,-0.109375 -0.125,-0.109375 -0.21875,0 -0.953125,0.078125 -1.21875,0.109375 -0.078125,0 -0.1875,0.015625 -0.1875,0.1875 0,0.125 0.09375,0.125 0.25,0.125 0.46875,0 0.484375,0.0625 0.484375,0.171875 0,0.0625 -0.078125,0.40625 -0.125,0.609375 l -0.828125,3.25 c -0.109375,0.5 -0.15625,0.671875 -0.15625,1.015625 0,0.9375 0.53125,1.5625 1.265625,1.5625 1.171875,0 2.40625,-1.484375 2.40625,-2.921875 z M 2.90625,-1.140625 c -0.328125,0.671875 -0.78125,1.03125 -1.171875,1.03125 -0.34375,0 -0.671875,-0.265625 -0.671875,-1 0,-0.203125 0,-0.390625 0.15625,-1.015625 L 1.453125,-3.046875 C 1.5,-3.265625 1.5,-3.28125 1.59375,-3.390625 2.078125,-4.03125 2.53125,-4.1875 2.796875,-4.1875 c 0.359375,0 0.625,0.296875 0.625,0.9375 0,0.59375 -0.328125,1.734375 -0.515625,2.109375 z m 0,0"
           id="path6383" />
      </g>
    </g>
    <g
       fill="#000000"
       fill-opacity="1"
       id="g2020"
       transform="matrix(0.35277777,0,0,0.35277777,85.562871,-30.624859)">
      <g
         id="use2018"
         transform="translate(283.68701,583.086)">
        <path
           d="m 3.6875,-1.140625 v -0.25 H 2.90625 V -4.5 c 0,-0.140625 0,-0.203125 -0.140625,-0.203125 -0.09375,0 -0.125,0 -0.1875,0.109375 l -2.3125,3.203125 v 0.25 h 2.0625 v 0.5625 c 0,0.25 0,0.328125 -0.578125,0.328125 H 1.5625 V 0 L 2.609375,-0.03125 3.671875,0 v -0.25 h -0.1875 C 2.90625,-0.25 2.90625,-0.328125 2.90625,-0.578125 v -0.5625 z m -1.3125,-0.25 H 0.53125 L 2.375,-3.9375 Z m 0,0"
           id="path6355" />
      </g>
    </g>
  </g>
</svg>
